<svg width="200" height="100" viewBox="0 0 200 100" fill="none" xmlns="http://www.w3.org/2000/svg">
<rect width="200" height="100" fill="white"/>
<g opacity="0.8">
<path d="M39.5585 48.2484C38.219 48.2484 37.1615 49.4009 37.1615 50.8357C37.1615 52.2705 38.2425 53.423 39.5585 53.423C40.898 53.423 41.9555 52.2705 41.9555 50.8357C41.9555 49.4009 40.8745 48.2484 39.5585 48.2484ZM30.981 48.2484C29.6415 48.2484 28.584 49.4009 28.584 50.8357C28.584 52.2705 29.665 53.423 30.981 53.423C32.3205 53.423 33.378 52.2705 33.378 50.8357C33.4015 49.4009 32.3205 48.2484 30.981 48.2484Z" fill="black"/>
<path d="M50.9784 28.6792H19.4884C16.8329 28.6792 14.6709 30.8431 14.6709 33.501V65.0188C14.6709 67.6766 16.8329 69.8405 19.4884 69.8405H46.1374L44.8919 65.5362L47.8999 68.3117L50.7434 70.9225L55.8194 75.3209V33.501C55.7959 30.8431 53.6339 28.6792 50.9784 28.6792ZM41.9074 59.1386C41.9074 59.1386 41.0614 58.1272 40.3564 57.2569C43.4349 56.3867 44.6099 54.4815 44.6099 54.4815C43.6464 55.1165 42.7299 55.5634 41.9074 55.8692C40.7324 56.3631 39.6044 56.6689 38.4999 56.8806C36.2439 57.304 34.1759 57.1864 32.4134 56.8571C31.0739 56.5983 29.9224 56.2455 28.9589 55.8457C28.4184 55.634 27.8309 55.3753 27.2434 55.046C27.1729 54.9989 27.1024 54.9754 27.0319 54.9284C26.9849 54.9048 26.9614 54.8813 26.9379 54.8813C26.5149 54.6461 26.2799 54.4815 26.2799 54.4815C26.2799 54.4815 27.4079 56.3396 30.3924 57.2334C29.6874 58.1272 28.8179 59.1621 28.8179 59.1621C23.6244 58.9975 21.6504 55.6105 21.6504 55.6105C21.6504 48.1073 25.0344 42.0155 25.0344 42.0155C28.4184 39.4987 31.6144 39.5693 31.6144 39.5693L31.8494 39.8516C27.6194 41.0511 25.6924 42.9093 25.6924 42.9093C25.6924 42.9093 26.2094 42.627 27.0789 42.2507C29.5934 41.1452 31.5909 40.863 32.4134 40.7689C32.5544 40.7454 32.6719 40.7218 32.8129 40.7218C34.2464 40.5337 35.8679 40.4866 37.5599 40.6748C39.7924 40.9335 42.1894 41.5921 44.6334 42.9093C44.6334 42.9093 42.7769 41.1452 38.7819 39.9456L39.1109 39.5693C39.1109 39.5693 42.3304 39.4987 45.6909 42.0155C45.6909 42.0155 49.0749 48.1073 49.0749 55.6105C49.0749 55.5869 47.1009 58.9739 41.9074 59.1386V59.1386ZM77.3924 38.7461H69.5904V47.5193L74.7839 52.2V43.6854H77.5569C79.3194 43.6854 80.1889 44.5322 80.1889 45.8964V52.4116C80.1889 53.7759 79.3664 54.6932 77.5569 54.6932H69.5669V59.656H77.3689C81.5519 59.6796 85.4764 57.5862 85.4764 52.788V45.7788C85.4999 40.8865 81.5754 38.7461 77.3924 38.7461V38.7461ZM118.282 52.788V45.5906C118.282 43.0033 122.935 42.4153 124.345 45.0026L128.646 43.2621C126.954 39.5458 123.875 38.4638 121.314 38.4638C117.131 38.4638 112.995 40.8865 112.995 45.5906V52.788C112.995 57.5392 117.131 59.9148 121.22 59.9148C123.852 59.9148 127.001 58.6211 128.74 55.2341L124.134 53.1173C123.006 56.0103 118.282 55.3047 118.282 52.788V52.788ZM104.065 46.5785C102.443 46.2257 101.362 45.6377 101.292 44.6263C101.386 42.2036 105.122 42.1096 107.308 44.4381L110.762 41.7803C108.6 39.1459 106.156 38.4403 103.642 38.4403C99.8114 38.4403 96.0984 40.6042 96.0984 44.6968C96.0984 48.6718 99.1534 50.8122 102.514 51.3297C104.229 51.5649 106.133 52.247 106.086 53.423C105.945 55.6575 101.339 55.5399 99.2474 52.9997L95.9104 56.1279C97.8609 58.6447 100.516 59.9148 103.007 59.9148C106.838 59.9148 111.091 57.7038 111.256 53.6582C111.491 48.5542 107.778 47.2606 104.065 46.5785V46.5785ZM88.3199 59.6325H93.5839V38.7461H88.3199V59.6325ZM177.079 38.7461H169.277V47.5193L174.471 52.2V43.6854H177.244C179.006 43.6854 179.876 44.5322 179.876 45.8964V52.4116C179.876 53.7759 179.053 54.6932 177.244 54.6932H169.254V59.656H177.079C181.262 59.6796 185.187 57.5862 185.187 52.788V45.7788C185.187 40.8865 181.262 38.7461 177.079 38.7461V38.7461ZM138.798 38.4638C134.474 38.4638 130.173 40.8159 130.173 45.6377V52.7645C130.173 57.5392 134.497 59.9383 138.845 59.9383C143.169 59.9383 147.469 57.5392 147.469 52.7645V45.6377C147.469 40.8394 143.122 38.4638 138.798 38.4638ZM142.182 52.7645C142.182 54.2698 140.49 55.046 138.821 55.046C137.129 55.046 135.437 54.3168 135.437 52.7645V45.6377C135.437 44.1088 137.082 43.2856 138.727 43.2856C140.443 43.2856 142.182 44.0147 142.182 45.6377V52.7645V52.7645ZM166.363 45.6377C166.246 40.7453 162.909 38.7696 158.608 38.7696H150.266V59.656H155.6V53.0232H156.54L161.381 59.656H167.961L162.274 52.4822C164.789 51.6825 166.363 49.4951 166.363 45.6377ZM158.702 48.4602H155.6V43.6854H158.702C162.016 43.6854 162.016 48.4602 158.702 48.4602Z" fill="black"/>
</g>
</svg>
