<?xml version="1.0" encoding="utf-8"?>
<!-- Generator: Adobe Illustrator 25.2.1, SVG Export Plug-In . SVG Version: 6.00 Build 0)  -->
<svg version="1.1" id="Layer_1" xmlns="http://www.w3.org/2000/svg" xmlns:xlink="http://www.w3.org/1999/xlink" x="0px" y="0px"
	 viewBox="0 0 60 49" style="enable-background:new 0 0 60 49;" xml:space="preserve">
<style type="text/css">
	.st0{fill-rule:evenodd;clip-rule:evenodd;fill:#FFFFFF;}
</style>
<path class="st0" d="M29.4,2.6c0.8-1.4,2.3-2.4,4.1-2.4c1.8,0,3.3,1,4.1,2.4l20.7,36.1l0,0c0.4,0.7,0.6,1.5,0.6,2.3
	c0,2.6-2.1,4.7-4.7,4.7c-1.9,0-3.5-1.1-4.3-2.8c-3.3-5.4-9.4-9-16.4-9c-7.1,0-13.3,3.8-16.6,9.3c0,0.1-0.1,0.1-0.1,0.2c0,0,0,0,0,0
	h0c-0.8,1.3-2.3,2.2-4,2.2c-2.6,0-4.7-2.1-4.7-4.7c0-0.8,0.2-1.6,0.6-2.2l0,0l5.8-10c2.8,0.4,5.6,0.3,7.8-0.3
	c7.9-2.1,20.4-7.3,27.7-0.5c-7.3-6.8-19.8-6.9-27.7-4.9c-6.8,1.8-18.5-1-21-8.7c-0.4-1.3,0.8-2.5,2.1-2.1c6.6,2.2,18.9,2.9,23.2-4.5
	L29.4,2.6z"/>
</svg>
