<svg width="151" height="49" viewBox="0 0 151 49" fill="none" xmlns="http://www.w3.org/2000/svg">
<path fill-rule="evenodd" clip-rule="evenodd" d="M28.5546 2.63929C29.3615 1.21292 30.894 0.25 32.652 0.25C34.4095 0.25 35.942 1.21271 36.7488 2.63883L57.4626 38.7107L57.4375 38.7245C57.8145 39.3999 58.0291 40.178 58.0291 41.0059C58.0291 43.5994 55.9234 45.702 53.3263 45.702C51.4198 45.702 49.7779 44.5691 49.0399 42.941C45.7242 37.5294 39.6264 33.9015 32.652 33.9015C25.5496 33.9015 19.3556 37.664 16.0842 43.241C16.0448 43.3134 16.0037 43.3848 15.9607 43.4546C15.9585 43.4587 15.9563 43.4623 15.9541 43.4664H15.9537C15.1258 44.8079 13.641 45.702 11.947 45.702C9.34968 45.702 7.24414 43.5994 7.24414 41.0059C7.24414 40.2072 7.44388 39.4548 7.79624 38.7964L7.79291 38.7949L13.5486 28.7716C16.3395 29.1904 19.1004 29.102 21.3364 28.5146C29.2161 26.4438 41.7691 21.2627 49.043 28.0247C41.7691 21.2624 29.2161 21.1028 21.3364 23.1736C14.5322 24.9613 2.8675 22.127 0.286692 14.444C-0.149751 13.1441 1.06759 11.8944 2.3608 12.332C8.99525 14.5749 21.3013 15.2704 25.5683 7.83962L28.5546 2.63929Z" fill="url(#paint0_linear)"/>
<path fill-rule="evenodd" clip-rule="evenodd" d="M84.5255 4.15891C83.9498 4.20426 83.3432 4.27226 82.7064 4.36296L72.3818 36.9609C73.4732 37.1422 74.58 37.2331 75.7021 37.2331C76.7026 37.2331 77.7488 37.1422 78.8401 36.9609L80.705 30.4322H91.5302L93.3494 36.9609C94.4412 37.1422 95.5629 37.2331 96.7154 37.2331C97.8976 37.2331 99.1107 37.1422 100.354 36.9609L90.1199 4.36296C89.4225 4.27226 88.7862 4.20426 88.2099 4.15891C87.6337 4.11356 87.0426 4.09091 86.436 4.09091C85.7386 4.09091 85.1017 4.11356 84.5255 4.15891ZM86.2085 11.2543L89.9838 24.9464H82.2519L86.2085 11.2543ZM105.822 3.54688C104.761 3.54688 103.684 3.63752 102.592 3.81887V29.0266C102.592 31.9283 103.297 34.0217 104.708 35.3061C106.118 36.5906 107.99 37.2331 110.325 37.2331C110.901 37.2331 111.53 37.2028 112.212 37.1422C112.894 37.0821 113.478 36.9763 113.964 36.8248C114.024 36.5829 114.054 36.3641 114.054 36.1674V35.51C114.054 34.3314 113.888 33.1224 113.554 31.8831C113.281 31.9437 113.001 31.9889 112.712 32.0192C112.424 32.0495 112.159 32.0644 111.916 32.0644C111.371 32.0644 110.916 32.0038 110.552 31.8831C110.188 31.7624 109.892 31.5431 109.665 31.2257C109.438 30.9083 109.271 30.4626 109.165 29.8884C109.059 29.3142 109.005 28.5583 109.005 27.6214V3.81887C107.914 3.63752 106.853 3.54688 105.822 3.54688ZM119.295 3.54688C118.234 3.54688 117.157 3.63752 116.066 3.81887V29.0266C116.066 31.9283 116.771 34.0217 118.181 35.3061C119.591 36.5906 121.463 37.2331 123.798 37.2331C124.374 37.2331 125.003 37.2028 125.686 37.1422C126.368 37.0821 126.952 36.9763 127.436 36.8248C127.497 36.5829 127.527 36.3641 127.527 36.1674V35.51C127.527 34.3314 127.361 33.1224 127.027 31.8831C126.754 31.9437 126.474 31.9889 126.186 32.0192C125.898 32.0495 125.632 32.0644 125.39 32.0644C124.844 32.0644 124.389 32.0038 124.025 31.8831C123.662 31.7624 123.366 31.5431 123.138 31.2257C122.911 30.9083 122.744 30.4626 122.638 29.8884C122.532 29.3142 122.479 28.5583 122.479 27.6214V3.81887C121.387 3.63752 120.326 3.54688 119.295 3.54688ZM128.834 13.2719C128.303 13.287 127.689 13.3701 126.992 13.5213L133.758 36.4612L133.917 37.0056C134.504 39.0075 135.614 40.1985 136.874 40.9643C136.74 41.294 136.6 41.5765 136.452 41.8122C136.149 42.296 135.823 42.6509 135.474 42.8774C135.126 43.1044 134.769 43.2405 134.405 43.2857C134.042 43.3309 133.677 43.3535 133.314 43.3535C132.859 43.3535 132.404 43.316 131.949 43.2405C131.494 43.165 131.131 43.0818 130.858 42.9909C130.615 43.5954 130.41 44.2225 130.244 44.8726C130.077 45.5223 129.993 46.21 129.993 46.9352V47.2752C129.993 47.381 130.009 47.5099 130.039 47.6609C130.706 47.8422 131.381 47.9855 132.063 48.0913C132.745 48.1971 133.511 48.25 134.36 48.25C135.27 48.25 136.118 48.1673 136.907 48.0009C137.695 47.8345 138.408 47.5397 139.044 47.1165C139.681 46.6938 140.25 46.1042 140.75 45.3487C141.251 44.5927 141.683 43.6411 142.046 42.4922L150.825 13.5213C150.067 13.3701 149.43 13.287 148.914 13.2719C148.399 13.2568 147.914 13.2492 147.459 13.2492C146.398 13.2492 145.367 13.3399 144.366 13.5213L138.817 33.9688L133.905 13.5213C133.389 13.4004 132.814 13.3248 132.177 13.2946C131.54 13.2643 130.918 13.2492 130.312 13.2492C129.857 13.2492 129.364 13.2568 128.834 13.2719Z" fill="#333333"/>
<defs>
<linearGradient id="paint0_linear" x1="29.1129" y1="0.25" x2="29.1129" y2="45.702" gradientUnits="userSpaceOnUse">
<stop stop-color="#008CFE"/>
<stop offset="1" stop-color="#13CE95"/>
</linearGradient>
</defs>
</svg>
