<?xml version="1.0" encoding="utf-8"?>
<!-- Generator: Adobe Illustrator 25.2.1, SVG Export Plug-In . SVG Version: 6.00 Build 0)  -->
<svg version="1.1" id="Layer_1" xmlns="http://www.w3.org/2000/svg" xmlns:xlink="http://www.w3.org/1999/xlink" x="0px" y="0px"
	 viewBox="0 0 151 49" style="enable-background:new 0 0 151 49;" xml:space="preserve">
<style type="text/css">
	.st0{fill-rule:evenodd;clip-rule:evenodd;fill:#FFFFFF;}
</style>
<path class="st0" d="M28.6,2.6c0.8-1.4,2.3-2.4,4.1-2.4c1.8,0,3.3,1,4.1,2.4l20.7,36.1l0,0c0.4,0.7,0.6,1.5,0.6,2.3
	c0,2.6-2.1,4.7-4.7,4.7c-1.9,0-3.5-1.1-4.3-2.8c-3.3-5.4-9.4-9-16.4-9c-7.1,0-13.3,3.8-16.6,9.3c0,0.1-0.1,0.1-0.1,0.2c0,0,0,0,0,0
	h0c-0.8,1.3-2.3,2.2-4,2.2c-2.6,0-4.7-2.1-4.7-4.7c0-0.8,0.2-1.6,0.6-2.2l0,0l5.8-10c2.8,0.4,5.6,0.3,7.8-0.3
	c7.9-2.1,20.4-7.3,27.7-0.5c-7.3-6.8-19.8-6.9-27.7-4.9c-6.8,1.8-18.5-1-21-8.7c-0.4-1.3,0.8-2.5,2.1-2.1c6.6,2.2,18.9,2.9,23.2-4.5
	L28.6,2.6z"/>
<path class="st0" d="M84.5,4.2c-0.6,0-1.2,0.1-1.8,0.2L72.4,37c1.1,0.2,2.2,0.3,3.3,0.3c1,0,2-0.1,3.1-0.3l1.9-6.5h10.8l1.8,6.5
	c1.1,0.2,2.2,0.3,3.4,0.3c1.2,0,2.4-0.1,3.6-0.3L90.1,4.4c-0.7-0.1-1.3-0.2-1.9-0.2c-0.6,0-1.2-0.1-1.8-0.1
	C85.7,4.1,85.1,4.1,84.5,4.2z M86.2,11.3L90,24.9h-7.7L86.2,11.3z M105.8,3.5c-1.1,0-2.1,0.1-3.2,0.3V29c0,2.9,0.7,5,2.1,6.3
	c1.4,1.3,3.3,1.9,5.6,1.9c0.6,0,1.2,0,1.9-0.1c0.7-0.1,1.3-0.2,1.8-0.3c0.1-0.2,0.1-0.5,0.1-0.7v-0.7c0-1.2-0.2-2.4-0.5-3.6
	c-0.3,0.1-0.6,0.1-0.8,0.1c-0.3,0-0.6,0-0.8,0c-0.5,0-1-0.1-1.4-0.2c-0.4-0.1-0.7-0.3-0.9-0.7s-0.4-0.8-0.5-1.3
	c-0.1-0.6-0.2-1.3-0.2-2.3V3.8C107.9,3.6,106.9,3.5,105.8,3.5z M119.3,3.5c-1.1,0-2.1,0.1-3.2,0.3V29c0,2.9,0.7,5,2.1,6.3
	c1.4,1.3,3.3,1.9,5.6,1.9c0.6,0,1.2,0,1.9-0.1c0.7-0.1,1.3-0.2,1.8-0.3c0.1-0.2,0.1-0.5,0.1-0.7v-0.7c0-1.2-0.2-2.4-0.5-3.6
	c-0.3,0.1-0.6,0.1-0.8,0.1c-0.3,0-0.6,0-0.8,0c-0.5,0-1-0.1-1.4-0.2c-0.4-0.1-0.7-0.3-0.9-0.7c-0.2-0.3-0.4-0.8-0.5-1.3
	c-0.1-0.6-0.2-1.3-0.2-2.3V3.8C121.4,3.6,120.3,3.5,119.3,3.5z M128.8,13.3c-0.5,0-1.1,0.1-1.8,0.2l6.8,22.9l0.2,0.5
	c0.6,2,1.7,3.2,3,4c-0.1,0.3-0.3,0.6-0.4,0.8c-0.3,0.5-0.6,0.8-1,1.1c-0.3,0.2-0.7,0.4-1.1,0.4c-0.4,0-0.7,0.1-1.1,0.1
	c-0.5,0-0.9,0-1.4-0.1s-0.8-0.2-1.1-0.2c-0.2,0.6-0.4,1.2-0.6,1.9c-0.2,0.6-0.3,1.3-0.3,2.1v0.3c0,0.1,0,0.2,0,0.4
	c0.7,0.2,1.3,0.3,2,0.4c0.7,0.1,1.4,0.2,2.3,0.2c0.9,0,1.8-0.1,2.5-0.2c0.8-0.2,1.5-0.5,2.1-0.9c0.6-0.4,1.2-1,1.7-1.8
	c0.5-0.8,0.9-1.7,1.3-2.9l8.8-29c-0.8-0.2-1.4-0.2-1.9-0.2c-0.5,0-1,0-1.5,0c-1.1,0-2.1,0.1-3.1,0.3L138.8,34l-4.9-20.4
	c-0.5-0.1-1.1-0.2-1.7-0.2c-0.6,0-1.3,0-1.9,0C129.9,13.2,129.4,13.3,128.8,13.3z"/>
</svg>
